<svg xmlns="http://www.w3.org/2000/svg" viewBox="0 0 16 25" fill="none"><path d="M8.498 18.852a.582.582 0 0 1-.178-1.14c1.457-.454 2.407-1.212 2.824-2.255 1.032-2.576.929-6.23-.259-9.881-.842.437-1.644.93-2.392 1.47a.6.6 0 0 1-.828-.125.58.58 0 0 1 .127-.817c.982-.71 2.05-1.341 3.177-1.878a.602.602 0 0 1 .484-.015.586.586 0 0 1 .333.345c1.48 4.116 1.652 8.35.46 11.33-.555 1.385-1.756 2.374-3.57 2.938a.573.573 0 0 1-.178.027zm-5.379.95a.577.577 0 0 0 .13-.814C1.864 17.114.457 14.27 1.624 11.353c1.228-3.068 4.68-7.087 10.713-9.302a23.748 23.748 0 0 1 1.939 6.471c.047.32.35.541.67.495a.585.585 0 0 0 .503-.66c-.356-2.444-1.091-4.953-2.231-7.206C13.07.86 12.67.692 12.364.8 5.668 3.153 1.874 7.546.52 10.925c-1.365 3.41.21 6.641 1.77 8.75a.598.598 0 0 0 .829.128zm4.713 1.979c2.404-.413 5.544-1.596 6.857-4.875.67-1.675 1.002-3.594.984-5.707a.588.588 0 0 0-.593-.578h-.005a.587.587 0 0 0-.588.588c.016 1.961-.288 3.734-.902 5.269-1.11 2.776-3.852 3.79-5.958 4.154a.585.585 0 0 0-.48.676.59.59 0 0 0 .685.473zm-4.156-5.867a.581.581 0 0 0 .361-.746c-.369-1.028-.388-1.97-.057-2.796.555-1.39 1.587-2.8 2.981-4.08.24-.219.253-.588.03-.824a.599.599 0 0 0-.837-.03c-1.523 1.398-2.656 2.955-3.276 4.506-.439 1.095-.424 2.31.043 3.613a.592.592 0 0 0 .755.357zm-2.16 8.827c4.144-1.237 5.739-8.374 5.804-8.678a.577.577 0 0 0-.094-.458c-.768-1.075-.98-1.887-.849-2.215.473-1.18 1.451-2.41 2.797-3.528.195 1.787.049 3.387-.427 4.576-.12.3.03.638.334.757a.596.596 0 0 0 .769-.328c.64-1.6.765-3.798.353-6.189a.597.597 0 0 0-.935-.373c-1.933 1.4-3.35 3.055-3.992 4.658-.38.95.205 2.17.83 3.095-.306 1.21-1.833 6.64-4.934 7.566a.583.583 0 0 0 .172 1.143.62.62 0 0 0 .171-.026z" fill="url(#a)"/><defs><linearGradient id="a" x1="7.837" y1="5.967" x2="21.598" y2="11.959" gradientUnits="userSpaceOnUse"><stop stop-color="#4B286D"/><stop offset="1" stop-color="#E53293"/></linearGradient></defs></svg>